mtllib pierre_camelot.mtl
v 0.0550 -0.0550 -0.1600
v 0.0550 0.0550 -0.1600
v 0.0550 0.0550 0.1600
v 0.0550 -0.0550 0.1600
vt 0 0
vt 1 0
vt 1 1
vt 0 1
vn 1 0 0
usemtl grande_face
f 1/1/1 2/2/1 3/3/1 4/4/1
v -0.0550 0.0550 -0.1600
v -0.0550 -0.0550 -0.1600
v -0.0550 -0.0550 0.1600
v -0.0550 0.0550 0.1600
vt 0 0
vt 1 0
vt 1 1
vt 0 1
vn -1 0 0
usemtl grande_face
f 5/5/2 6/6/2 7/7/2 8/8/2
v 0.0550 0.0550 -0.1600
v -0.0550 0.0550 -0.1600
v -0.0550 0.0550 0.1600
v 0.0550 0.0550 0.1600
vt 0 0
vt 1 0
vt 1 1
vt 0 1
vn 0 1 0
usemtl grande_face
f 9/9/3 10/10/3 11/11/3 12/12/3
v -0.0550 -0.0550 -0.1600
v 0.0550 -0.0550 -0.1600
v 0.0550 -0.0550 0.1600
v -0.0550 -0.0550 0.1600
vt 0 0
vt 1 0
vt 1 1
vt 0 1
vn 0 -1 0
usemtl grande_face
f 13/13/4 14/14/4 15/15/4 16/16/4
v -0.0550 -0.0550 0.1600
v 0.0550 -0.0550 0.1600
v 0.0550 0.0550 0.1600
v -0.0550 0.0550 0.1600
vt 0 0
vt 1 0
vt 1 1
vt 0 1
vn 0 0 1
usemtl bout
f 17/17/5 18/18/5 19/19/5 20/20/5
v 0.0550 -0.0550 -0.1600
v -0.0550 -0.0550 -0.1600
v -0.0550 0.0550 -0.1600
v 0.0550 0.0550 -0.1600
vt 0 0
vt 1 0
vt 1 1
vt 0 1
vn 0 0 -1
usemtl bout
f 21/21/6 22/22/6 23/23/6 24/24/6
